<?xml version="1.0" encoding="utf-8"?>
<!-- Generator: Adobe Illustrator 19.1.0, SVG Export Plug-In . SVG Version: 6.00 Build 0)  -->
<svg version="1.1" id="nextjournal" xmlns="http://www.w3.org/2000/svg" xmlns:xlink="http://www.w3.org/1999/xlink" x="0px"
	 y="0px" viewBox="0 0 149.4 32.7" style="enable-background:new 0 0 149.4 32.7;" xml:space="preserve">
<style type="text/css">
	.st0{fill:#009CAA;}
</style>
<path d="M12.4,25.1V13.8c0-2.8-1-4.2-3.6-4.2c-2,0-4.1,1.4-5.4,2.9v12.5H0V7.2h3.2v2.7C5.1,8,7.4,6.9,9.8,6.9c4.1,0,6,2.5,6,6.1
	v12.1H12.4z"/>
<path class="st0" d="M38.3,25.1h-3.6L41,16l-6.3-8.8h3.8l6.2,8.7L38.3,25.1z"/>
<path d="M50.7,10.1v10c0,1.7,0.9,2.3,2.8,2.3c0.5,0,0.9,0,1.5-0.1l0.3,2.7c-1.1,0.2-2,0.3-2.9,0.3c-3.2,0-5-1.7-5-5.6V6.5l3.3-4.7
	v5.4h4.7v2.9H50.7z"/>
<path d="M60.9,27.1c0,3.9-1.8,5.6-5,5.6c-0.9,0-1.9-0.1-2.9-0.3l0.4-2.8c0.6,0.1,1,0.1,1.5,0.1c1.9,0,2.7-0.7,2.7-2.3V7.2h3.4V27.1z
	 M59.2,4.4c-1.2,0-2.1-1-2.1-2.1c0-1.2,0.9-2.2,2.1-2.2c1.2,0,2.1,1,2.1,2.2C61.3,3.4,60.4,4.4,59.2,4.4z"/>
<path d="M71.3,25.4c-5.4,0-9.1-4.2-9.1-9.3c0-5.1,3.6-9.3,9.1-9.3c5.4,0,9,4.2,9,9.3C80.3,21.2,76.8,25.4,71.3,25.4z M71.3,9.6
	c-3.4,0-5.7,2.6-5.7,6.5c0,3.9,2.3,6.5,5.7,6.5c3.4,0,5.7-2.6,5.7-6.5C77,12.2,74.7,9.6,71.3,9.6z"/>
<path d="M94.6,25.1v-2.5c-1.5,1.5-4.1,2.9-6.4,2.9c-4.2,0-6.2-2.5-6.2-6.1V7.2h3.4v11.2c0,2.8,1.2,4.2,3.7,4.2c2,0,4-1.3,5.3-2.7
	V7.2h3.4v17.9H94.6z"/>
<path d="M103.8,12.8v12.2h-3.4V7.2h3.2v3c1.7-2.2,4-3.3,6.4-3.3v3.3C107.4,10.1,105,11.1,103.8,12.8z"/>
<path d="M123.8,25.1V13.8c0-2.8-1-4.2-3.6-4.2c-2,0-4.1,1.4-5.4,2.9v12.5h-3.4V7.2h3.2v2.7c1.9-1.9,4.2-3.1,6.6-3.1
	c4.1,0,6,2.5,6,6.1v12.1H123.8z"/>
<path d="M140.6,25.1v-1.9c-1.4,1.4-3.3,2.2-5.5,2.2c-3.5,0-6.5-2.1-6.5-5.7c0-3.2,2.8-5.6,6.4-5.6c2.5,0,3.9,0.6,5.4,1.2v-1.1
	c0-3-1.4-4.4-4.7-4.4c-1.7,0-3.4,0.4-4.7,0.9l-0.6-2.9c1.7-0.5,3.9-0.9,5.7-0.9c5.1,0,7.5,2.4,7.5,7.6v10.6H140.6z M140.4,18.1
	c-1.8-1-2.9-1.4-4.8-1.4c-2.3,0-3.8,1-3.8,3c0,2,1.5,3.1,4.1,3.1c1.9,0,3.4-0.9,4.5-2.2V18.1z"/>
<path d="M146.1,25.1V0h3.4v25.1H146.1z"/>
<path d="M33.8,17.1H20.7c0.4,3.1,2.1,5.4,6.7,5.4c1.5,0,3.3-0.4,4.9-1l0.6,2.8c-2,0.6-4.2,1-5.8,1c-6.4,0-9.7-4-9.7-9.2
	c0-4.9,3.1-9.4,8.7-9.4c5.1,0,7.8,3.7,7.8,8.6C33.9,16,33.9,16.4,33.8,17.1z M30.8,14.5c-0.2-2.8-1.8-4.9-4.9-4.9
	c-2.9,0-4.7,1.9-5.1,4.9H30.8z"/>
</svg>
